<?xml version="1.0" encoding="UTF-8" standalone="no"?>
<svg width="100px" height="100px" viewBox="0 0 100 100" version="1.1" xmlns="http://www.w3.org/2000/svg" xmlns:xlink="http://www.w3.org/1999/xlink" xmlns:sketch="http://www.bohemiancoding.com/sketch/ns">
    <!-- Generator: Sketch Beta 3.2.2 (9983) - http://www.bohemiancoding.com/sketch -->
    <title>LOGO</title>
    <desc>Created with Sketch Beta.</desc>
    <defs></defs>
    <g id="Page-1" stroke="none" stroke-width="1" fill="none" fill-rule="evenodd" sketch:type="MSPage">
        <g id="header" sketch:type="MSArtboardGroup" transform="translate(-90.000000, 0.000000)">
            <g sketch:type="MSLayerGroup" transform="translate(0.000000, -4.000000)" id="L3D-+-LOGO">
                <g transform="translate(90.000000, 4.000000)" sketch:type="MSShapeGroup">
                    <g id="LOGO">
                        <rect id="logo-bg" stroke="#00E896" fill="#00E896" x="0" y="0" width="100" height="100"></rect>
                        <path d="M75.667381,25.3374447 C69.6997759,22.254459 63.7342535,19.1636646 57.7236061,16.1694132 C51.9719067,13.304359 46.1341227,13.2660258 40.3629848,16.1204319 C34.4481413,19.0458255 28.5832823,22.0748607 22.6948195,25.0542047 C17.3638237,27.7503088 14.9721998,32.2104514 15.0041344,38.2096023 C15.0471767,46.0153843 15.0596728,53.8218762 15.0006632,61.6276581 C14.9534555,67.7815617 17.424916,72.2942351 22.8926752,75.030802 C28.690888,77.93064 34.4606374,80.8936569 40.2616272,83.7885259 C45.1712251,86.2390133 50.4050285,86.8076229 55.3944629,84.7092334 C62.8491096,81.5737169 70.0461969,77.7978935 77.0593131,73.7090153 C80.8720268,71.4849779 82.7832433,67.9221169 82.9165355,63.491789 C83.050522,59.0032514 82.9463874,54.5061953 82.9463874,50.0133985 C82.9887355,45.7569899 83.0185874,41.4991616 82.9810989,37.2434629 C82.933197,31.7561316 80.4277193,27.7978704 75.667381,25.3374447 Z M71.6287518,65.0841609 C64.4754503,68.7587557 57.6659509,73.1864174 49.9830833,75.7135498 C48.5933188,76.1336668 47.2042475,76.0593604 45.8165624,75.6999746 C38.5308694,73.0463784 31.8620793,69.0524089 25.0012868,65.4792709 C23.4070433,64.6490397 22.9904605,62.9842903 23.0001646,61.2116538 C23.0431398,53.238719 23.0750247,45.2664986 23.1110685,37.2949928 C22.9980851,35.8174384 23.150578,34.4406264 24.4606303,33.502508 C31.159919,28.9605287 38.492053,25.6939047 45.819335,22.4587179 C47.837786,21.5677555 50.20905,22.0807555 52.1963092,23.0903224 C58.5566479,26.3205078 64.8539099,29.6850162 71.1754322,32.9980818 C72.8320592,33.8933311 73.1613051,35.3658841 72.8611714,37.1135137 C72.9076124,45.4151115 72.9512808,53.7174237 72.9998013,62.019736 C73.0081191,63.2693697 72.7585853,64.5032848 71.6287518,65.0841609 L71.6287518,65.0841609 Z" id="Fill-1" fill="#F9F9F9"></path>
                        <path d="M46,77.7102467 C46.0405922,70.3559845 46.0791882,62.0010323 46.1237731,54.6460801 C46.1330893,53.0562677 45.84362,51 48.058892,51 C50.3100982,51.00069 49.9540842,53.0907689 49.9594078,54.6578105 C49.9853602,62.0127627 49.9893529,69.3690949 50,76.7233571 C48.6657794,77.1290904 47.3322243,77.0573281 46,76.7102467" id="Fill-2" fill="#239BCE"></path>
                        <path d="M74.8953547,37.0592526 C68.4473422,40.045572 62.0029796,43.0389362 55.5498572,46.0139837 C54.0548351,46.7029717 52.3035862,47.9851376 51.2421789,45.7004871 C50.3070601,43.6863595 52.2875263,43.1432002 53.64969,42.4760513 C60.1305521,39.3009295 66.6260141,36.1561006 73.1185561,33 C74.8646951,33.8841309 75.2114409,35.3360781 74.8953547,37.0592526" id="Fill-3" fill="#DE2774"></path>
                        <path d="M24.3737206,33 C30.4527678,36.109204 36.5338854,39.2140227 42.6087921,42.3334591 C43.9537873,43.0234188 45.6459004,43.7119167 44.7487768,45.7532912 C43.8323306,47.838519 42.2444219,46.8284296 40.9180592,46.1472406 C34.9459767,43.0789664 28.9918366,39.972686 23.0301055,36.8795616 C22.9176201,35.368082 23.069441,33.9596579 24.3737206,33" id="Fill-4" fill="#83B93C"></path>
                    </g>
                </g>
            </g>
        </g>
    </g>
</svg>